<svg xmlns="http://www.w3.org/2000/svg" viewBox="0 0 1200 900" role="img" aria-labelledby="title desc">
  <title id="title">Roze marmer achtergrond 4</title>
  <desc id="desc">Abstracte roze marmerachtergrond met warme zachte glans.</desc>
  <defs>
    <linearGradient id="bg" x1="0%" y1="0%" x2="100%" y2="100%">
      <stop offset="0%" stop-color="#fff8fb"/>
      <stop offset="35%" stop-color="#ffe9f1"/>
      <stop offset="68%" stop-color="#ffd4e4"/>
      <stop offset="100%" stop-color="#fff2f7"/>
    </linearGradient>
    <filter id="soft" x="-10%" y="-10%" width="120%" height="120%">
      <feGaussianBlur stdDeviation="24"/>
    </filter>
  </defs>
  <rect width="1200" height="900" fill="url(#bg)"/>
  <g filter="url(#soft)" opacity="0.88">
    <circle cx="180" cy="240" r="220" fill="#fffefe"/>
    <circle cx="600" cy="220" r="220" fill="#ffd7e5"/>
    <circle cx="960" cy="260" r="210" fill="#ffeef5"/>
    <circle cx="420" cy="690" r="250" fill="#ffd2e3"/>
    <circle cx="900" cy="690" r="220" fill="#fff7fa"/>
  </g>
  <g fill="none" stroke-linecap="round" stroke-linejoin="round">
    <path d="M40 180 C200 250, 300 110, 470 180 S720 300, 910 230 S1050 120, 1180 180" stroke="#f2bfd3" stroke-width="16" opacity="0.4"/>
    <path d="M-10 430 C200 330, 390 520, 570 430 S890 300, 1090 430 S1170 500, 1220 470" stroke="#d5ab60" stroke-width="8" opacity="0.68"/>
    <path d="M60 720 C240 620, 410 770, 560 700 S850 620, 1020 730 S1120 790, 1210 740" stroke="#f3bdd3" stroke-width="18" opacity="0.38"/>
  </g>
</svg>
